<mxfile host="app.diagrams.net" agent="Mozilla/5.0 (Macintosh; Intel Mac OS X 10_15_7) AppleWebKit/537.36 (KHTML, like Gecko) Chrome/139.0.0.0 Safari/537.36" version="28.2.5">
  <diagram name="Use Case Diagram" id="usecase123">
    <mxGraphModel dx="70" dy="1207" grid="1" gridSize="10" guides="1" tooltips="1" connect="1" arrows="1" fold="1" page="1" pageScale="1" pageWidth="827" pageHeight="1169" math="0" shadow="0">
      <root>
        <mxCell id="0" />
        <mxCell id="1" parent="0" />
        <mxCell id="pkav59_5A5UW_an5WSjR-3" value="" style="rounded=0;whiteSpace=wrap;html=1;" parent="1" vertex="1">
          <mxGeometry x="180" y="695" width="500" height="275" as="geometry" />
        </mxCell>
        <mxCell id="pkav59_5A5UW_an5WSjR-1" value="" style="whiteSpace=wrap;html=1;aspect=fixed;" parent="1" vertex="1">
          <mxGeometry x="150" y="-160" width="810" height="810" as="geometry" />
        </mxCell>
        <mxCell id="user" value="" style="shape=umlActor;" parent="1" vertex="1">
          <mxGeometry x="70" y="210" width="40" height="80" as="geometry" />
        </mxCell>
        <mxCell id="uc1" value="Xem hồ sơ" style="ellipse;whiteSpace=wrap;" parent="1" vertex="1">
          <mxGeometry x="250" y="100" width="120" height="40" as="geometry" />
        </mxCell>
        <mxCell id="uc2" value="Xem chi tiết sản phẩm" style="ellipse;whiteSpace=wrap;" parent="1" vertex="1">
          <mxGeometry x="240" y="160" width="160" height="40" as="geometry" />
        </mxCell>
        <mxCell id="uc3" value="Liên hệ" style="ellipse;whiteSpace=wrap;" parent="1" vertex="1">
          <mxGeometry x="260" y="220" width="120" height="40" as="geometry" />
        </mxCell>
        <mxCell id="uc4" value="Thêm giỏ hàng" style="ellipse;whiteSpace=wrap;" parent="1" vertex="1">
          <mxGeometry x="250" y="280" width="140" height="40" as="geometry" />
        </mxCell>
        <mxCell id="uc5" value="Tìm kiếm" style="ellipse;whiteSpace=wrap;" parent="1" vertex="1">
          <mxGeometry x="250" y="340" width="120" height="40" as="geometry" />
        </mxCell>
        <mxCell id="uc6" value=" Tin Tức" style="ellipse;whiteSpace=wrap;" parent="1" vertex="1">
          <mxGeometry x="250" y="400" width="140" height="40" as="geometry" />
        </mxCell>
        <mxCell id="uc7" value="Đăng ký" style="ellipse;whiteSpace=wrap;" parent="1" vertex="1">
          <mxGeometry x="260" y="460" width="120" height="40" as="geometry" />
        </mxCell>
        <mxCell id="uc8" value="Quên mật khẩu" style="ellipse;whiteSpace=wrap;" parent="1" vertex="1">
          <mxGeometry x="240" y="40" width="160" height="40" as="geometry" />
        </mxCell>
        <mxCell id="uc9" value="Đánh giá/Bình luận" style="ellipse;whiteSpace=wrap;" parent="1" vertex="1">
          <mxGeometry x="234" y="590" width="180" height="40" as="geometry" />
        </mxCell>
        <mxCell id="uc10" value="Thanh toán" style="ellipse;whiteSpace=wrap;" parent="1" vertex="1">
          <mxGeometry x="240" y="-20" width="140" height="40" as="geometry" />
        </mxCell>
        <mxCell id="uc11" value="Đăng xuất" style="ellipse;whiteSpace=wrap;" parent="1" vertex="1">
          <mxGeometry x="240" y="-80" width="140" height="40" as="geometry" />
        </mxCell>
        <mxCell id="M7kHpwHz41B4yy5_DEGk-1" value="Đăng Nhập" style="ellipse;whiteSpace=wrap;" parent="1" vertex="1">
          <mxGeometry x="680" y="340" width="120" height="40" as="geometry" />
        </mxCell>
        <UserObject label="&amp;lt;&amp;lt;include&amp;gt;&amp;gt;" tooltip="Inclu&#xa;" id="M7kHpwHz41B4yy5_DEGk-2">
          <mxCell style="endArrow=classic;dashed=1;html=1;rounded=0;entryX=0.286;entryY=0.004;entryDx=0;entryDy=0;exitX=1;exitY=0.5;exitDx=0;exitDy=0;entryPerimeter=0;endFill=1;" parent="1" source="uc1" target="M7kHpwHz41B4yy5_DEGk-1" edge="1">
            <mxGeometry x="-0.0001" width="50" height="50" relative="1" as="geometry">
              <mxPoint x="400" y="330" as="sourcePoint" />
              <mxPoint x="450" y="280" as="targetPoint" />
              <mxPoint as="offset" />
            </mxGeometry>
          </mxCell>
        </UserObject>
        <mxCell id="M7kHpwHz41B4yy5_DEGk-3" value="" style="endArrow=classic;dashed=1;html=1;rounded=0;exitX=1;exitY=0.5;exitDx=0;exitDy=0;entryX=0.229;entryY=0.928;entryDx=0;entryDy=0;entryPerimeter=0;endFill=1;" parent="1" source="uc9" target="M7kHpwHz41B4yy5_DEGk-1" edge="1">
          <mxGeometry width="50" height="50" relative="1" as="geometry">
            <mxPoint x="390" y="470" as="sourcePoint" />
            <mxPoint x="440" y="420" as="targetPoint" />
          </mxGeometry>
        </mxCell>
        <mxCell id="M7kHpwHz41B4yy5_DEGk-4" value="&amp;lt;&amp;lt;include&amp;gt;&amp;gt;" style="edgeLabel;html=1;align=center;verticalAlign=middle;resizable=0;points=[];" parent="M7kHpwHz41B4yy5_DEGk-3" vertex="1" connectable="0">
          <mxGeometry x="0.01" y="-1" relative="1" as="geometry">
            <mxPoint as="offset" />
          </mxGeometry>
        </mxCell>
        <mxCell id="M7kHpwHz41B4yy5_DEGk-5" value="" style="endArrow=none;html=1;rounded=0;entryX=0;entryY=0.5;entryDx=0;entryDy=0;exitX=0.97;exitY=0.332;exitDx=0;exitDy=0;exitPerimeter=0;" parent="1" target="uc2" edge="1" source="user">
          <mxGeometry width="50" height="50" relative="1" as="geometry">
            <mxPoint x="110" y="240" as="sourcePoint" />
            <mxPoint x="440" y="320" as="targetPoint" />
          </mxGeometry>
        </mxCell>
        <mxCell id="M7kHpwHz41B4yy5_DEGk-6" value="" style="endArrow=none;html=1;rounded=0;entryX=0;entryY=0.5;entryDx=0;entryDy=0;exitX=0.969;exitY=0.333;exitDx=0;exitDy=0;exitPerimeter=0;" parent="1" target="uc1" edge="1" source="user">
          <mxGeometry width="50" height="50" relative="1" as="geometry">
            <mxPoint x="110" y="240" as="sourcePoint" />
            <mxPoint x="440" y="320" as="targetPoint" />
          </mxGeometry>
        </mxCell>
        <mxCell id="M7kHpwHz41B4yy5_DEGk-7" value="" style="endArrow=none;html=1;rounded=0;entryX=0;entryY=0.5;entryDx=0;entryDy=0;exitX=0.982;exitY=0.333;exitDx=0;exitDy=0;exitPerimeter=0;" parent="1" target="uc3" edge="1" source="user">
          <mxGeometry width="50" height="50" relative="1" as="geometry">
            <mxPoint x="110" y="240" as="sourcePoint" />
            <mxPoint x="440" y="270" as="targetPoint" />
          </mxGeometry>
        </mxCell>
        <mxCell id="M7kHpwHz41B4yy5_DEGk-8" value="" style="endArrow=none;html=1;rounded=0;entryX=0.026;entryY=0.355;entryDx=0;entryDy=0;entryPerimeter=0;exitX=0.98;exitY=0.331;exitDx=0;exitDy=0;exitPerimeter=0;" parent="1" target="uc4" edge="1" source="user">
          <mxGeometry width="50" height="50" relative="1" as="geometry">
            <mxPoint x="110" y="240" as="sourcePoint" />
            <mxPoint x="440" y="270" as="targetPoint" />
          </mxGeometry>
        </mxCell>
        <mxCell id="M7kHpwHz41B4yy5_DEGk-9" value="" style="endArrow=none;html=1;rounded=0;exitX=0.952;exitY=0.333;exitDx=0;exitDy=0;exitPerimeter=0;" parent="1" target="uc5" edge="1" source="user">
          <mxGeometry width="50" height="50" relative="1" as="geometry">
            <mxPoint x="110" y="240" as="sourcePoint" />
            <mxPoint x="220" y="290" as="targetPoint" />
          </mxGeometry>
        </mxCell>
        <mxCell id="M7kHpwHz41B4yy5_DEGk-10" value="" style="endArrow=none;html=1;rounded=0;entryX=0.982;entryY=0.33;entryDx=0;entryDy=0;entryPerimeter=0;" parent="1" source="uc6" edge="1" target="user">
          <mxGeometry width="50" height="50" relative="1" as="geometry">
            <mxPoint x="180" y="360" as="sourcePoint" />
            <mxPoint x="110" y="240" as="targetPoint" />
          </mxGeometry>
        </mxCell>
        <mxCell id="M7kHpwHz41B4yy5_DEGk-11" value="" style="endArrow=none;html=1;rounded=0;exitX=0.379;exitY=0.011;exitDx=0;exitDy=0;exitPerimeter=0;entryX=0.983;entryY=0.333;entryDx=0;entryDy=0;entryPerimeter=0;" parent="1" source="uc7" edge="1" target="user">
          <mxGeometry width="50" height="50" relative="1" as="geometry">
            <mxPoint x="250" y="400" as="sourcePoint" />
            <mxPoint x="110" y="240" as="targetPoint" />
          </mxGeometry>
        </mxCell>
        <mxCell id="M7kHpwHz41B4yy5_DEGk-12" value="" style="endArrow=none;html=1;rounded=0;entryX=0;entryY=0.5;entryDx=0;entryDy=0;exitX=0.985;exitY=0.331;exitDx=0;exitDy=0;exitPerimeter=0;" parent="1" target="uc8" edge="1" source="user">
          <mxGeometry width="50" height="50" relative="1" as="geometry">
            <mxPoint x="110" y="240" as="sourcePoint" />
            <mxPoint x="270" y="150" as="targetPoint" />
          </mxGeometry>
        </mxCell>
        <mxCell id="M7kHpwHz41B4yy5_DEGk-13" value="" style="endArrow=none;html=1;rounded=0;entryX=0;entryY=0.5;entryDx=0;entryDy=0;exitX=0.983;exitY=0.334;exitDx=0;exitDy=0;exitPerimeter=0;" parent="1" target="uc10" edge="1" source="user">
          <mxGeometry width="50" height="50" relative="1" as="geometry">
            <mxPoint x="110" y="240" as="sourcePoint" />
            <mxPoint x="380" y="210" as="targetPoint" />
          </mxGeometry>
        </mxCell>
        <mxCell id="M7kHpwHz41B4yy5_DEGk-14" value="" style="endArrow=none;html=1;rounded=0;entryX=0;entryY=0.5;entryDx=0;entryDy=0;exitX=0.987;exitY=0.329;exitDx=0;exitDy=0;exitPerimeter=0;" parent="1" target="uc11" edge="1" source="user">
          <mxGeometry width="50" height="50" relative="1" as="geometry">
            <mxPoint x="110" y="240" as="sourcePoint" />
            <mxPoint x="180" y="50" as="targetPoint" />
          </mxGeometry>
        </mxCell>
        <mxCell id="M7kHpwHz41B4yy5_DEGk-15" value="" style="endArrow=none;html=1;rounded=0;exitX=0;exitY=0;exitDx=0;exitDy=0;entryX=0.982;entryY=0.333;entryDx=0;entryDy=0;entryPerimeter=0;" parent="1" source="uc9" edge="1" target="user">
          <mxGeometry width="50" height="50" relative="1" as="geometry">
            <mxPoint x="130" y="520" as="sourcePoint" />
            <mxPoint x="110" y="240" as="targetPoint" />
          </mxGeometry>
        </mxCell>
        <mxCell id="M7kHpwHz41B4yy5_DEGk-16" value="" style="endArrow=classic;html=1;rounded=0;exitX=1;exitY=0.5;exitDx=0;exitDy=0;entryX=0.476;entryY=-0.049;entryDx=0;entryDy=0;entryPerimeter=0;dashed=1;endFill=1;" parent="1" source="uc10" target="M7kHpwHz41B4yy5_DEGk-1" edge="1">
          <mxGeometry width="50" height="50" relative="1" as="geometry">
            <mxPoint x="630" y="273" as="sourcePoint" />
            <mxPoint x="937" y="110" as="targetPoint" />
          </mxGeometry>
        </mxCell>
        <mxCell id="M7kHpwHz41B4yy5_DEGk-17" value="&amp;lt;&amp;lt;include&amp;gt;&amp;gt;" style="edgeLabel;html=1;align=center;verticalAlign=middle;resizable=0;points=[];" parent="M7kHpwHz41B4yy5_DEGk-16" vertex="1" connectable="0">
          <mxGeometry x="0.01" y="-1" relative="1" as="geometry">
            <mxPoint as="offset" />
          </mxGeometry>
        </mxCell>
        <mxCell id="M7kHpwHz41B4yy5_DEGk-21" value="" style="shape=umlActor;" parent="1" vertex="1">
          <mxGeometry x="90" y="830" width="40" height="80" as="geometry" />
        </mxCell>
        <mxCell id="M7kHpwHz41B4yy5_DEGk-23" value="Quản Lí Sản Phẩm" style="ellipse;whiteSpace=wrap;" parent="1" vertex="1">
          <mxGeometry x="230" y="720" width="120" height="40" as="geometry" />
        </mxCell>
        <mxCell id="M7kHpwHz41B4yy5_DEGk-24" value="Quản Lí Bình Luận" style="ellipse;whiteSpace=wrap;" parent="1" vertex="1">
          <mxGeometry x="230" y="780" width="120" height="40" as="geometry" />
        </mxCell>
        <mxCell id="M7kHpwHz41B4yy5_DEGk-25" value="Quản Lí User" style="ellipse;whiteSpace=wrap;" parent="1" vertex="1">
          <mxGeometry x="230" y="840" width="120" height="40" as="geometry" />
        </mxCell>
        <mxCell id="M7kHpwHz41B4yy5_DEGk-26" value="Quản Lý Đơn Hàng" style="ellipse;whiteSpace=wrap;" parent="1" vertex="1">
          <mxGeometry x="230" y="910" width="120" height="40" as="geometry" />
        </mxCell>
        <mxCell id="M7kHpwHz41B4yy5_DEGk-30" value="" style="endArrow=none;html=1;rounded=0;exitX=0;exitY=0;exitDx=0;exitDy=0;entryX=0.968;entryY=0.334;entryDx=0;entryDy=0;entryPerimeter=0;" parent="1" source="M7kHpwHz41B4yy5_DEGk-26" edge="1" target="M7kHpwHz41B4yy5_DEGk-21">
          <mxGeometry width="50" height="50" relative="1" as="geometry">
            <mxPoint x="326" y="1096" as="sourcePoint" />
            <mxPoint x="130" y="860" as="targetPoint" />
          </mxGeometry>
        </mxCell>
        <mxCell id="M7kHpwHz41B4yy5_DEGk-31" value="" style="endArrow=none;html=1;rounded=0;exitX=0;exitY=0.5;exitDx=0;exitDy=0;entryX=0.924;entryY=0.336;entryDx=0;entryDy=0;entryPerimeter=0;" parent="1" source="M7kHpwHz41B4yy5_DEGk-25" edge="1" target="M7kHpwHz41B4yy5_DEGk-21">
          <mxGeometry width="50" height="50" relative="1" as="geometry">
            <mxPoint x="356" y="1086" as="sourcePoint" />
            <mxPoint x="130" y="860" as="targetPoint" />
          </mxGeometry>
        </mxCell>
        <mxCell id="M7kHpwHz41B4yy5_DEGk-32" value="" style="endArrow=none;html=1;rounded=0;exitX=0;exitY=0.5;exitDx=0;exitDy=0;entryX=0.984;entryY=0.336;entryDx=0;entryDy=0;entryPerimeter=0;" parent="1" source="M7kHpwHz41B4yy5_DEGk-24" edge="1" target="M7kHpwHz41B4yy5_DEGk-21">
          <mxGeometry width="50" height="50" relative="1" as="geometry">
            <mxPoint x="356" y="1026" as="sourcePoint" />
            <mxPoint x="130" y="860" as="targetPoint" />
          </mxGeometry>
        </mxCell>
        <mxCell id="M7kHpwHz41B4yy5_DEGk-33" value="" style="endArrow=none;html=1;rounded=0;exitX=0;exitY=0.5;exitDx=0;exitDy=0;entryX=1;entryY=0.3333333333333333;entryDx=0;entryDy=0;entryPerimeter=0;" parent="1" source="M7kHpwHz41B4yy5_DEGk-23" edge="1" target="M7kHpwHz41B4yy5_DEGk-21">
          <mxGeometry width="50" height="50" relative="1" as="geometry">
            <mxPoint x="326" y="946" as="sourcePoint" />
            <mxPoint x="130" y="860" as="targetPoint" />
          </mxGeometry>
        </mxCell>
        <mxCell id="M7kHpwHz41B4yy5_DEGk-34" value="Đăng Nhập" style="ellipse;whiteSpace=wrap;" parent="1" vertex="1">
          <mxGeometry x="530" y="820" width="120" height="40" as="geometry" />
        </mxCell>
        <mxCell id="M7kHpwHz41B4yy5_DEGk-35" value="" style="endArrow=classic;dashed=1;html=1;rounded=0;entryX=0.417;entryY=-0.05;entryDx=0;entryDy=0;exitX=1;exitY=0.5;exitDx=0;exitDy=0;endFill=1;entryPerimeter=0;" parent="1" source="M7kHpwHz41B4yy5_DEGk-23" target="M7kHpwHz41B4yy5_DEGk-34" edge="1">
          <mxGeometry width="50" height="50" relative="1" as="geometry">
            <mxPoint x="350" y="850" as="sourcePoint" />
            <mxPoint x="400" y="800" as="targetPoint" />
          </mxGeometry>
        </mxCell>
        <mxCell id="M7kHpwHz41B4yy5_DEGk-36" value="&amp;lt;&amp;lt;include&amp;gt;&amp;gt;" style="edgeLabel;html=1;align=center;verticalAlign=middle;resizable=0;points=[];" parent="M7kHpwHz41B4yy5_DEGk-35" vertex="1" connectable="0">
          <mxGeometry x="-0.1978" y="-1" relative="1" as="geometry">
            <mxPoint x="1" as="offset" />
          </mxGeometry>
        </mxCell>
        <mxCell id="M7kHpwHz41B4yy5_DEGk-37" value="" style="endArrow=classic;dashed=1;html=1;rounded=0;exitX=1;exitY=0.5;exitDx=0;exitDy=0;endFill=1;" parent="1" source="M7kHpwHz41B4yy5_DEGk-24" target="M7kHpwHz41B4yy5_DEGk-34" edge="1">
          <mxGeometry width="50" height="50" relative="1" as="geometry">
            <mxPoint x="450" y="970" as="sourcePoint" />
            <mxPoint x="648" y="1056" as="targetPoint" />
          </mxGeometry>
        </mxCell>
        <mxCell id="M7kHpwHz41B4yy5_DEGk-38" value="&amp;lt;&amp;lt;include&amp;gt;&amp;gt;" style="edgeLabel;html=1;align=center;verticalAlign=middle;resizable=0;points=[];" parent="M7kHpwHz41B4yy5_DEGk-37" vertex="1" connectable="0">
          <mxGeometry x="-0.1978" y="-1" relative="1" as="geometry">
            <mxPoint x="1" as="offset" />
          </mxGeometry>
        </mxCell>
        <mxCell id="M7kHpwHz41B4yy5_DEGk-39" value="" style="endArrow=classic;dashed=1;html=1;rounded=0;entryX=0;entryY=1;entryDx=0;entryDy=0;exitX=1;exitY=0.5;exitDx=0;exitDy=0;endFill=1;" parent="1" source="M7kHpwHz41B4yy5_DEGk-25" target="M7kHpwHz41B4yy5_DEGk-34" edge="1">
          <mxGeometry width="50" height="50" relative="1" as="geometry">
            <mxPoint x="410" y="890" as="sourcePoint" />
            <mxPoint x="608" y="976" as="targetPoint" />
          </mxGeometry>
        </mxCell>
        <mxCell id="M7kHpwHz41B4yy5_DEGk-40" value="&amp;lt;&amp;lt;include&amp;gt;&amp;gt;" style="edgeLabel;html=1;align=center;verticalAlign=middle;resizable=0;points=[];" parent="M7kHpwHz41B4yy5_DEGk-39" vertex="1" connectable="0">
          <mxGeometry x="-0.1978" y="-1" relative="1" as="geometry">
            <mxPoint x="1" as="offset" />
          </mxGeometry>
        </mxCell>
        <mxCell id="M7kHpwHz41B4yy5_DEGk-41" value="" style="endArrow=classic;dashed=1;html=1;rounded=0;entryX=0.5;entryY=1;entryDx=0;entryDy=0;exitX=1;exitY=0.5;exitDx=0;exitDy=0;endFill=1;" parent="1" source="M7kHpwHz41B4yy5_DEGk-26" target="M7kHpwHz41B4yy5_DEGk-34" edge="1">
          <mxGeometry width="50" height="50" relative="1" as="geometry">
            <mxPoint x="440" y="960" as="sourcePoint" />
            <mxPoint x="638" y="1046" as="targetPoint" />
          </mxGeometry>
        </mxCell>
        <mxCell id="M7kHpwHz41B4yy5_DEGk-42" value="&amp;lt;&amp;lt;include&amp;gt;&amp;gt;" style="edgeLabel;html=1;align=center;verticalAlign=middle;resizable=0;points=[];" parent="M7kHpwHz41B4yy5_DEGk-41" vertex="1" connectable="0">
          <mxGeometry x="-0.1978" y="-1" relative="1" as="geometry">
            <mxPoint x="1" as="offset" />
          </mxGeometry>
        </mxCell>
        <mxCell id="M7kHpwHz41B4yy5_DEGk-43" value="Giới Thiệu" style="ellipse;whiteSpace=wrap;" parent="1" vertex="1">
          <mxGeometry x="260" y="530" width="120" height="40" as="geometry" />
        </mxCell>
        <mxCell id="M7kHpwHz41B4yy5_DEGk-44" value="" style="endArrow=none;html=1;rounded=0;exitX=0;exitY=0;exitDx=0;exitDy=0;entryX=0.978;entryY=0.335;entryDx=0;entryDy=0;entryPerimeter=0;" parent="1" source="M7kHpwHz41B4yy5_DEGk-43" edge="1" target="user">
          <mxGeometry width="50" height="50" relative="1" as="geometry">
            <mxPoint x="485" y="630" as="sourcePoint" />
            <mxPoint x="110" y="240" as="targetPoint" />
          </mxGeometry>
        </mxCell>
        <mxCell id="M7kHpwHz41B4yy5_DEGk-45" value="Chính Sách" style="ellipse;whiteSpace=wrap;" parent="1" vertex="1">
          <mxGeometry x="234" y="-140" width="140" height="40" as="geometry" />
        </mxCell>
        <mxCell id="M7kHpwHz41B4yy5_DEGk-46" value="" style="endArrow=none;html=1;rounded=0;exitX=0;exitY=0.5;exitDx=0;exitDy=0;entryX=0.989;entryY=0.333;entryDx=0;entryDy=0;entryPerimeter=0;" parent="1" source="M7kHpwHz41B4yy5_DEGk-45" edge="1" target="user">
          <mxGeometry width="50" height="50" relative="1" as="geometry">
            <mxPoint x="705" y="60" as="sourcePoint" />
            <mxPoint x="110" y="240" as="targetPoint" />
          </mxGeometry>
        </mxCell>
        <mxCell id="pkav59_5A5UW_an5WSjR-6" value="User&amp;nbsp;" style="text;html=1;align=center;verticalAlign=middle;resizable=0;points=[];autosize=1;strokeColor=none;fillColor=none;" parent="1" vertex="1">
          <mxGeometry x="65" y="270" width="50" height="30" as="geometry" />
        </mxCell>
        <mxCell id="pkav59_5A5UW_an5WSjR-7" value="Admin" style="text;html=1;align=center;verticalAlign=middle;resizable=0;points=[];autosize=1;strokeColor=none;fillColor=none;" parent="1" vertex="1">
          <mxGeometry x="70" y="898" width="60" height="30" as="geometry" />
        </mxCell>
      </root>
    </mxGraphModel>
  </diagram>
</mxfile>
